<svg xmlns="http://www.w3.org/2000/svg" xmlns:xlink="http://www.w3.org/1999/xlink" version="1.1" x="0px" y="0px" viewBox="0 0 66 82.5" style="enable-background:new 0 0 66 66;" xml:space="preserve"><g><path d="M59.6,7.8H45.9c-0.6,0-1,0.4-1,1s0.4,1,1,1h13.6c1.4,0,2.5,0.9,2.5,2.1v38.8H4V11.8c0-1.1,1.1-2.1,2.5-2.1   H22c0.6,0,1-0.4,1-1s-0.4-1-1-1H6.4C4,7.8,2,9.6,2,11.8v42.6c0,2.2,2,4.1,4.5,4.1H25L24.2,63h-1.7c-0.6,0-1,0.4-1,1s0.4,1,1,1h20.8   c0.6,0,1-0.4,1-1s-0.4-1-1-1h-1.7L41,58.6h18.6c2.5,0,4.5-1.8,4.5-4.1V11.8C64,9.6,62,7.8,59.6,7.8z M39.7,63H26.3l0.8-4.4h11.9   L39.7,63z M59.6,56.6H6.4c-1.4,0-2.5-0.9-2.5-2.1v-1.8H62v1.8C62,55.6,60.9,56.6,59.6,56.6z"/><path d="M10.8,33.8v6.3c0,2.2,1.8,3.9,3.9,3.9h36.6c2.2,0,3.9-1.8,3.9-3.9v-6.3c0-2.2-1.8-3.9-3.9-3.9H14.7   C12.5,29.9,10.8,31.6,10.8,33.8z M53.2,33.8v6.3c0,1.1-0.9,1.9-1.9,1.9H14.7c-1.1,0-1.9-0.9-1.9-1.9v-6.3c0-1.1,0.9-1.9,1.9-1.9   h36.6C52.4,31.9,53.2,32.7,53.2,33.8z"/><path d="M17.9,39.1c0.4,0.4,1,0.4,1.4,0l0.8-0.8l0.8,0.8c0.4,0.4,1,0.4,1.4,0c0.4-0.4,0.4-1,0-1.4l-0.8-0.8   l0.8-0.8c0.4-0.4,0.4-1,0-1.4c-0.4-0.4-1-0.4-1.4,0l-0.8,0.8l-0.8-0.8c-0.4-0.4-1-0.4-1.4,0c-0.4,0.4-0.4,1,0,1.4l0.8,0.8l-0.8,0.8   C17.5,38.1,17.5,38.7,17.9,39.1z"/><path d="M26.5,39.1c0.4,0.4,1,0.4,1.4,0l0.8-0.8l0.8,0.8c0.4,0.4,1,0.4,1.4,0c0.4-0.4,0.4-1,0-1.4l-0.8-0.8   l0.8-0.8c0.4-0.4,0.4-1,0-1.4s-1-0.4-1.4,0l-0.8,0.8l-0.8-0.8c-0.4-0.4-1-0.4-1.4,0s-0.4,1,0,1.4l0.8,0.8l-0.8,0.8   C26.1,38.1,26.1,38.7,26.5,39.1z"/><path d="M35.1,39.1c0.4,0.4,1,0.4,1.4,0l0.8-0.8l0.8,0.8c0.4,0.4,1,0.4,1.4,0c0.4-0.4,0.4-1,0-1.4l-0.8-0.8   l0.8-0.8c0.4-0.4,0.4-1,0-1.4s-1-0.4-1.4,0l-0.8,0.8l-0.8-0.8c-0.4-0.4-1-0.4-1.4,0s-0.4,1,0,1.4l0.8,0.8l-0.8,0.8   C34.7,38.1,34.7,38.7,35.1,39.1z"/><path d="M43.7,39.1c0.4,0.4,1,0.4,1.4,0l0.8-0.8l0.8,0.8c0.4,0.4,1,0.4,1.4,0c0.4-0.4,0.4-1,0-1.4l-0.8-0.8   l0.8-0.8c0.4-0.4,0.4-1,0-1.4c-0.4-0.4-1-0.4-1.4,0l-0.8,0.8l-0.8-0.8c-0.4-0.4-1-0.4-1.4,0c-0.4,0.4-0.4,1,0,1.4l0.8,0.8l-0.8,0.8   C43.3,38.1,43.3,38.7,43.7,39.1z"/><path d="M28.4,25h11.1c1.6,0,2.9-1.3,2.9-2.9v-8c0-1.6-1.3-2.9-2.9-2.9H30V7c0-2.2,1.8-4,4-4s4,1.8,4,4   c0,0.6,0.4,1,1,1s1-0.4,1-1c0-3.3-2.7-6-6-6s-6,2.7-6,6v4.2c-1.4,0.2-2.5,1.4-2.5,2.9v8C25.5,23.7,26.8,25,28.4,25z M27.5,14   c0-0.5,0.4-0.9,0.9-0.9h11.1c0.5,0,0.9,0.4,0.9,0.9v8c0,0.5-0.4,0.9-0.9,0.9H28.4c-0.5,0-0.9-0.4-0.9-0.9V14z"/><path d="M34,19.6c0.6,0,1-0.4,1-1v-1.1c0-0.6-0.4-1-1-1s-1,0.4-1,1v1.1C33,19.2,33.4,19.6,34,19.6z"/></g></svg>